<?xml version="1.0" encoding="utf-8"?>
<!-- Generator: Adobe Illustrator 19.1.0, SVG Export Plug-In . SVG Version: 6.00 Build 0)  -->
<svg version="1.1" id="Layer_1" xmlns="http://www.w3.org/2000/svg" xmlns:xlink="http://www.w3.org/1999/xlink" x="0px" y="0px"
	 viewBox="0 0 150 150" enable-background="new 0 0 150 150" xml:space="preserve">
<g id="construction">
	<circle id="Background_60_" fill="#C43E28" cx="75" cy="75" r="75"/>
	<g id="Shadow_60_">
		<defs>
			<circle id="SVGID_127_" cx="75" cy="75" r="75"/>
		</defs>
		<clipPath id="SVGID_2_">
			<use xlink:href="#SVGID_127_"  overflow="visible"/>
		</clipPath>
		<polygon clip-path="url(#SVGID_2_)" fill="#A33322" points="113.9,40.8 97.3,56 95,57.1 76.9,39 61,40.8 31.3,66.5 28.8,88.2 
			41.8,101.3 36.7,111.6 75.1,150 150,150 150,76.9 		"/>
	</g>
	<g id="Object_60_">
		<path fill="#DDDDDD" d="M124.9,52.9l-4.6,4.3c-3.2,3-8.4,2.8-11.5-0.4s-3.1-8.3,0-11.3l5-4.7c-5.2-1.8-11-0.9-14.9,2.8
			c-3.7,3.3-4.9,8.4-3.8,13.2l0.1,0.1c-11,10-34.5,30.9-41.7,37.6c-4.7-1.1-9.7-0.1-13.2,3.2c-3.8,3.6-5,8.9-3.6,13.9l4.4-4.1
			c3.2-3,8.4-2.8,11.5,0.4c3.1,3.2,3.1,8.3,0,11.3l-4.4,4.1c5,1.5,10.6,0.6,14.3-3c3.6-3.3,5-7.8,3.9-12.6l17.1-25l23.9-13.4
			c4.8,1.3,10,0.3,13.6-3.1C124.7,62.7,126,57.7,124.9,52.9z"/>
		<polygon fill="#999999" points="107.5,69.3 66.5,107.7 60.3,101 101.5,62.7 		"/>
		<path fill="#FFFFFF" d="M67.4,67.6c-2.4-2.9-5.1-5.7-7.2-8.8c-2.2-3.3-1.7-7-0.1-10.6c0.7-1.6,2.4-2.1,4.1-2.3
			c0.2,0,0.5,0.2,0.7,0.4c0.6,0.5,1.1,1.1,1.6,1.7c0.7,0.7,1.3,0.7,2,0.1c2.6-2.5,5.3-4.9,8-7.4c0.3-0.3,0.4-0.9,0.6-1.4
			c-4.5-4.8-9.1-9.8-13.6-14.6c-3.2,2.9-6.3,5.9-9.6,8.9c0.2,0.6,0.5,1.2,0.8,1.8c0.1,0.3,0.3,0.6,0.3,0.9c-0.1,0.7-0.2,1.4-0.4,2
			c-0.5,1.6-1.5,2.4-3.2,2.1c-3-0.6-5.3,0.5-7.4,2.5c-0.2,0.2-0.5,0.3-0.8,0.5c-1.8,1.6-3.5,3.2-5.2,4.8c-1.2,1.5-2.5,2.9-3.6,4.5
			c-3.7,5.1-7,10.4-8.6,16.6c-1.3,5.8-1.5,11.9,1.6,17.1c0.4,0.6,1.2,1.7,1.9,2.2c1.6,1.2,2,0.7,1.9-1.4c0-1.1-0.1-2.2-0.1-3.3
			c0-3,0.2-5.9,1.2-8.8c1.2-3.5,4-5.7,7-7.4c4.6-2.6,9.5-3.1,14,0c2.3,1.6,4.1,3.7,6.2,5.6c0.2,0.2,0.5,1.2,0.4,1.5
			c-0.1,0.1-0.1,0.2-0.2,0.3c-0.1,0.2,5.4,2.2,7.4,0.2C69.1,73.4,67.5,67.5,67.4,67.6z"/>
		<path fill="#F0B91C" d="M112.8,106.4c-5.8-5.1-11.8-10.3-17.5-15.6c-5.4-5-10.6-10.3-15.9-15.6c-0.6-0.7-1.3-1.3-1.9-2
			c-1.8-1.9-3.5-3.8-5.3-5.7c-0.8-0.8-1.4-1.1-2.1-1c-0.5-0.1-1.1,0.1-1.8,0.6c-0.2,0.2-0.5,0.2-0.8,0.4l-3.8,3.9l17.2,26.3l27.1,18
			c2-2.1,3.8-4.3,5.2-6c0.1-0.1,0.6-0.9,0.7-1.2C114.1,107.6,113.5,107,112.8,106.4z"/>
		<path fill="#FFD45C" d="M59.8,75.2c-0.2,0.3-0.4,0.6-0.4,0.9c-0.3,0.8-0.1,1.5,0.6,2.3c1.7,1.9,3.4,3.7,5.1,5.6
			c5.6,6.3,11.4,12.5,16.8,18.9c5.1,6,10,12.4,14.9,18.6c0.5,0.7,1.2,1.5,2,1.2c2.7-1,6.1-3.9,9-7L63.5,71.4L59.8,75.2z"/>
	</g>
</g>
</svg>
